<svg width="760" height="480" viewBox="0 0 760 480" fill="none" xmlns="http://www.w3.org/2000/svg">
<rect width="760" height="480" fill="#EFF1F7"/>
<g clip-path="url(#clip0_2717_28066)">
<path d="M125 31H635V353H125V31Z" fill="#EFF1F7"/>
<path fill-rule="evenodd" clip-rule="evenodd" d="M359.13 246.049C357.353 244.058 355.197 242.44 352.788 241.289C350.379 240.139 347.765 239.479 345.098 239.348C342.432 239.216 339.766 239.617 337.255 240.526C334.745 241.434 332.441 242.833 330.476 244.64L212.908 352.879H454.487L359.13 246.049Z" fill="#E3E6EB"/>
<path opacity="0.3" fill-rule="evenodd" clip-rule="evenodd" d="M488.033 191.866C486.164 189.813 483.891 188.169 481.357 187.037C478.822 185.905 476.08 185.309 473.304 185.287C470.528 185.265 467.778 185.817 465.225 186.909C462.673 188.001 460.374 189.608 458.473 191.631L306.855 352.879H634.671L488.033 191.866Z" fill="#C0C3CB"/>
<path fill-rule="evenodd" clip-rule="evenodd" d="M250.152 157.117C258.249 157.117 266.016 153.901 271.742 148.177C277.468 142.453 280.684 134.689 280.684 126.594C280.684 118.499 277.468 110.735 271.742 105.011C266.016 99.2866 258.249 96.0708 250.152 96.0708C242.054 96.0708 234.288 99.2866 228.562 105.011C222.836 110.735 219.619 118.499 219.619 126.594C219.619 134.689 222.836 142.453 228.562 148.177C234.288 153.901 242.054 157.117 250.152 157.117Z" fill="#CDCFD5"/>
</g>
<rect x="128" y="34" width="504" height="316" rx="6" stroke="#D9DCE1" stroke-width="6"/>
<path d="M174.104 431.296H168.632L152.168 406.384V431.296H146.696V397.888H152.168L168.632 422.752V397.888H174.104V431.296ZM192.762 431.728C190.266 431.728 188.01 431.168 185.994 430.048C183.978 428.896 182.394 427.296 181.242 425.248C180.09 423.168 179.514 420.768 179.514 418.048C179.514 415.36 180.106 412.976 181.29 410.896C182.474 408.816 184.09 407.216 186.138 406.096C188.186 404.976 190.474 404.416 193.002 404.416C195.53 404.416 197.818 404.976 199.866 406.096C201.914 407.216 203.53 408.816 204.714 410.896C205.898 412.976 206.49 415.36 206.49 418.048C206.49 420.736 205.882 423.12 204.666 425.2C203.45 427.28 201.786 428.896 199.674 430.048C197.594 431.168 195.29 431.728 192.762 431.728ZM192.762 426.976C194.17 426.976 195.482 426.64 196.698 425.968C197.946 425.296 198.954 424.288 199.722 422.944C200.49 421.6 200.874 419.968 200.874 418.048C200.874 416.128 200.506 414.512 199.77 413.2C199.034 411.856 198.058 410.848 196.842 410.176C195.626 409.504 194.314 409.168 192.906 409.168C191.498 409.168 190.186 409.504 188.97 410.176C187.786 410.848 186.842 411.856 186.138 413.2C185.434 414.512 185.082 416.128 185.082 418.048C185.082 420.896 185.802 423.104 187.242 424.672C188.714 426.208 190.554 426.976 192.762 426.976ZM229.84 397.936V431.296H224.368V397.936H229.84ZM269.04 404.416C271.12 404.416 272.976 404.848 274.608 405.712C276.272 406.576 277.568 407.856 278.496 409.552C279.456 411.248 279.936 413.296 279.936 415.696V431.296H274.512V416.512C274.512 414.144 273.92 412.336 272.736 411.088C271.552 409.808 269.936 409.168 267.888 409.168C265.84 409.168 264.208 409.808 262.992 411.088C261.808 412.336 261.216 414.144 261.216 416.512V431.296H255.792V416.512C255.792 414.144 255.2 412.336 254.016 411.088C252.832 409.808 251.216 409.168 249.168 409.168C247.12 409.168 245.488 409.808 244.272 411.088C243.088 412.336 242.496 414.144 242.496 416.512V431.296H237.024V404.848H242.496V407.872C243.392 406.784 244.528 405.936 245.904 405.328C247.28 404.72 248.752 404.416 250.32 404.416C252.432 404.416 254.32 404.864 255.984 405.76C257.648 406.656 258.928 407.952 259.824 409.648C260.624 408.048 261.872 406.784 263.568 405.856C265.264 404.896 267.088 404.416 269.04 404.416ZM285.075 417.952C285.075 415.296 285.619 412.944 286.707 410.896C287.827 408.848 289.331 407.264 291.219 406.144C293.139 404.992 295.251 404.416 297.555 404.416C299.635 404.416 301.443 404.832 302.979 405.664C304.547 406.464 305.795 407.472 306.723 408.688V404.848H312.243V431.296H306.723V427.36C305.795 428.608 304.531 429.648 302.931 430.48C301.331 431.312 299.507 431.728 297.459 431.728C295.187 431.728 293.107 431.152 291.219 430C289.331 428.816 287.827 427.184 286.707 425.104C285.619 422.992 285.075 420.608 285.075 417.952ZM306.723 418.048C306.723 416.224 306.339 414.64 305.571 413.296C304.835 411.952 303.859 410.928 302.643 410.224C301.427 409.52 300.115 409.168 298.707 409.168C297.299 409.168 295.987 409.52 294.771 410.224C293.555 410.896 292.563 411.904 291.795 413.248C291.059 414.56 290.691 416.128 290.691 417.952C290.691 419.776 291.059 421.376 291.795 422.752C292.563 424.128 293.555 425.184 294.771 425.92C296.019 426.624 297.331 426.976 298.707 426.976C300.115 426.976 301.427 426.624 302.643 425.92C303.859 425.216 304.835 424.192 305.571 422.848C306.339 421.472 306.723 419.872 306.723 418.048ZM330.087 404.416C332.135 404.416 333.943 404.832 335.511 405.664C337.111 406.464 338.359 407.472 339.255 408.688V404.848H344.775V431.728C344.775 434.16 344.263 436.32 343.239 438.208C342.215 440.128 340.727 441.632 338.775 442.72C336.855 443.808 334.551 444.352 331.863 444.352C328.279 444.352 325.303 443.504 322.935 441.808C320.567 440.144 319.223 437.872 318.903 434.992H324.327C324.743 436.368 325.623 437.472 326.967 438.304C328.343 439.168 329.975 439.6 331.863 439.6C334.071 439.6 335.847 438.928 337.191 437.584C338.567 436.24 339.255 434.288 339.255 431.728V427.312C338.327 428.56 337.063 429.616 335.463 430.48C333.895 431.312 332.103 431.728 330.087 431.728C327.783 431.728 325.671 431.152 323.751 430C321.863 428.816 320.359 427.184 319.239 425.104C318.151 422.992 317.607 420.608 317.607 417.952C317.607 415.296 318.151 412.944 319.239 410.896C320.359 408.848 321.863 407.264 323.751 406.144C325.671 404.992 327.783 404.416 330.087 404.416ZM339.255 418.048C339.255 416.224 338.871 414.64 338.103 413.296C337.367 411.952 336.391 410.928 335.175 410.224C333.959 409.52 332.647 409.168 331.239 409.168C329.831 409.168 328.519 409.52 327.303 410.224C326.087 410.896 325.095 411.904 324.327 413.248C323.591 414.56 323.223 416.128 323.223 417.952C323.223 419.776 323.591 421.376 324.327 422.752C325.095 424.128 326.087 425.184 327.303 425.92C328.551 426.624 329.863 426.976 331.239 426.976C332.647 426.976 333.959 426.624 335.175 425.92C336.391 425.216 337.367 424.192 338.103 422.848C338.871 421.472 339.255 419.872 339.255 418.048ZM376.202 417.424C376.202 418.416 376.138 419.312 376.01 420.112H355.802C355.962 422.224 356.746 423.92 358.154 425.2C359.562 426.48 361.29 427.12 363.338 427.12C366.282 427.12 368.362 425.888 369.578 423.424H375.482C374.682 425.856 373.226 427.856 371.114 429.424C369.034 430.96 366.442 431.728 363.338 431.728C360.81 431.728 358.538 431.168 356.522 430.048C354.538 428.896 352.97 427.296 351.818 425.248C350.698 423.168 350.138 420.768 350.138 418.048C350.138 415.328 350.682 412.944 351.77 410.896C352.89 408.816 354.442 407.216 356.426 406.096C358.442 404.976 360.746 404.416 363.338 404.416C365.834 404.416 368.058 404.96 370.01 406.048C371.962 407.136 373.482 408.672 374.57 410.656C375.658 412.608 376.202 414.864 376.202 417.424ZM370.49 415.696C370.458 413.68 369.738 412.064 368.33 410.848C366.922 409.632 365.178 409.024 363.098 409.024C361.21 409.024 359.594 409.632 358.25 410.848C356.906 412.032 356.106 413.648 355.85 415.696H370.49ZM414.168 424.48H400.2L397.8 431.296H392.088L404.04 397.888H410.376L422.328 431.296H416.568L414.168 424.48ZM412.632 420.016L407.208 404.512L401.736 420.016H412.632ZM437.748 426.4L445.236 404.848H451.044L440.964 431.296H434.436L424.404 404.848H430.26L437.748 426.4ZM453.357 417.952C453.357 415.296 453.901 412.944 454.989 410.896C456.109 408.848 457.613 407.264 459.501 406.144C461.421 404.992 463.533 404.416 465.837 404.416C467.917 404.416 469.725 404.832 471.261 405.664C472.829 406.464 474.077 407.472 475.005 408.688V404.848H480.525V431.296H475.005V427.36C474.077 428.608 472.813 429.648 471.213 430.48C469.613 431.312 467.789 431.728 465.741 431.728C463.469 431.728 461.389 431.152 459.501 430C457.613 428.816 456.109 427.184 454.989 425.104C453.901 422.992 453.357 420.608 453.357 417.952ZM475.005 418.048C475.005 416.224 474.621 414.64 473.853 413.296C473.117 411.952 472.141 410.928 470.925 410.224C469.709 409.52 468.397 409.168 466.989 409.168C465.581 409.168 464.269 409.52 463.053 410.224C461.837 410.896 460.845 411.904 460.077 413.248C459.341 414.56 458.973 416.128 458.973 417.952C458.973 419.776 459.341 421.376 460.077 422.752C460.845 424.128 461.837 425.184 463.053 425.92C464.301 426.624 465.613 426.976 466.989 426.976C468.397 426.976 469.709 426.624 470.925 425.92C472.141 425.216 473.117 424.192 473.853 422.848C474.621 421.472 475.005 419.872 475.005 418.048ZM490.496 401.344C489.504 401.344 488.672 401.008 488 400.336C487.328 399.664 486.992 398.832 486.992 397.84C486.992 396.848 487.328 396.016 488 395.344C488.672 394.672 489.504 394.336 490.496 394.336C491.456 394.336 492.272 394.672 492.944 395.344C493.616 396.016 493.952 396.848 493.952 397.84C493.952 398.832 493.616 399.664 492.944 400.336C492.272 401.008 491.456 401.344 490.496 401.344ZM493.184 404.848V431.296H487.712V404.848H493.184ZM505.84 395.776V431.296H500.368V395.776H505.84ZM511.2 417.952C511.2 415.296 511.744 412.944 512.832 410.896C513.952 408.848 515.456 407.264 517.344 406.144C519.264 404.992 521.376 404.416 523.68 404.416C525.76 404.416 527.568 404.832 529.104 405.664C530.672 406.464 531.92 407.472 532.848 408.688V404.848H538.368V431.296H532.848V427.36C531.92 428.608 530.656 429.648 529.056 430.48C527.456 431.312 525.632 431.728 523.584 431.728C521.312 431.728 519.232 431.152 517.344 430C515.456 428.816 513.952 427.184 512.832 425.104C511.744 422.992 511.2 420.608 511.2 417.952ZM532.848 418.048C532.848 416.224 532.464 414.64 531.696 413.296C530.96 411.952 529.984 410.928 528.768 410.224C527.552 409.52 526.24 409.168 524.832 409.168C523.424 409.168 522.112 409.52 520.896 410.224C519.68 410.896 518.688 411.904 517.92 413.248C517.184 414.56 516.816 416.128 516.816 417.952C516.816 419.776 517.184 421.376 517.92 422.752C518.688 424.128 519.68 425.184 520.896 425.92C522.144 426.624 523.456 426.976 524.832 426.976C526.24 426.976 527.552 426.624 528.768 425.92C529.984 425.216 530.96 424.192 531.696 422.848C532.464 421.472 532.848 419.872 532.848 418.048ZM551.028 408.784C551.956 407.504 553.22 406.464 554.82 405.664C556.452 404.832 558.26 404.416 560.244 404.416C562.58 404.416 564.692 404.976 566.58 406.096C568.468 407.216 569.956 408.816 571.044 410.896C572.132 412.944 572.676 415.296 572.676 417.952C572.676 420.608 572.132 422.992 571.044 425.104C569.956 427.184 568.452 428.816 566.532 430C564.644 431.152 562.548 431.728 560.244 431.728C558.196 431.728 556.372 431.328 554.772 430.528C553.204 429.728 551.956 428.704 551.028 427.456V431.296H545.556V395.776H551.028V408.784ZM567.108 417.952C567.108 416.128 566.724 414.56 565.956 413.248C565.22 411.904 564.228 410.896 562.98 410.224C561.764 409.52 560.452 409.168 559.044 409.168C557.668 409.168 556.356 409.52 555.108 410.224C553.892 410.928 552.9 411.952 552.132 413.296C551.396 414.64 551.028 416.224 551.028 418.048C551.028 419.872 551.396 421.472 552.132 422.848C552.9 424.192 553.892 425.216 555.108 425.92C556.356 426.624 557.668 426.976 559.044 426.976C560.452 426.976 561.764 426.624 562.98 425.92C564.228 425.184 565.22 424.128 565.956 422.752C566.724 421.376 567.108 419.776 567.108 417.952ZM583.559 395.776V431.296H578.087V395.776H583.559ZM614.983 417.424C614.983 418.416 614.919 419.312 614.791 420.112H594.583C594.743 422.224 595.527 423.92 596.935 425.2C598.343 426.48 600.071 427.12 602.119 427.12C605.063 427.12 607.143 425.888 608.359 423.424H614.263C613.463 425.856 612.007 427.856 609.895 429.424C607.815 430.96 605.223 431.728 602.119 431.728C599.591 431.728 597.319 431.168 595.303 430.048C593.319 428.896 591.751 427.296 590.599 425.248C589.479 423.168 588.919 420.768 588.919 418.048C588.919 415.328 589.463 412.944 590.551 410.896C591.671 408.816 593.223 407.216 595.207 406.096C597.223 404.976 599.527 404.416 602.119 404.416C604.615 404.416 606.839 404.96 608.791 406.048C610.743 407.136 612.263 408.672 613.351 410.656C614.439 412.608 614.983 414.864 614.983 417.424ZM609.271 415.696C609.239 413.68 608.519 412.064 607.111 410.848C605.703 409.632 603.959 409.024 601.879 409.024C599.991 409.024 598.375 409.632 597.031 410.848C595.687 412.032 594.887 413.648 594.631 415.696H609.271Z" fill="#B1B3B7"/>
<defs>
<clipPath id="clip0_2717_28066">
<rect x="125" y="31" width="510" height="322" rx="9" fill="white"/>
</clipPath>
</defs>
</svg>
