<svg width="1643" height="642" viewBox="0 0 1643 642" fill="none" xmlns="http://www.w3.org/2000/svg">
<path d="M0.00976562 231.777L24.8823 163.47C49.7549 96.1858 99.2719 -41.9643 149.473 13.5516C199.104 68.0441 248.736 313.644 298.937 341.018C348.568 367.369 398.199 178.052 448.401 149.911C497.918 121.769 547.663 259.919 597.864 313.644C647.267 367.369 697.126 341.786 747.328 327.203C796.617 313.644 846.59 313.644 895.651 313.644C945.966 313.644 996.054 313.644 1045.11 245.337C1095.32 178.052 1145.52 39.9024 1194.58 95.4183C1244.67 149.911 1294.98 395.511 1344.04 463.818C1394.01 531.103 1443.3 423.653 1493.51 409.07C1543.36 395.511 1592.77 477.378 1617.87 518.311L1642.97 559.244V641.111H1618.1C1593.22 641.111 1543.71 641.111 1493.51 641.111C1443.87 641.111 1394.24 641.111 1344.04 641.111C1294.41 641.111 1244.78 641.111 1194.58 641.111C1145.06 641.111 1095.32 641.111 1045.11 641.111C995.712 641.111 945.852 641.111 895.651 641.111C846.362 641.111 796.389 641.111 747.328 641.111C697.012 641.111 646.925 641.111 597.864 641.111C547.663 641.111 497.461 641.111 448.401 641.111C398.313 641.111 347.998 641.111 298.937 641.111C248.964 641.111 199.675 641.111 149.473 641.111C99.6142 641.111 50.2113 641.111 25.1105 641.111H0.00976562V231.777Z" fill="#A5C8FD" fill-opacity="0.3"/>
</svg>
