<svg width="900" height="292" viewBox="0 0 900 292" fill="none" xmlns="http://www.w3.org/2000/svg">
<path d="M0 53.9039L18.8 54.7039C37.7 55.6039 75.3 57.2039 112.8 44.1039C150.3 30.9039 187.7 2.90389 225.2 0.203893C262.7 -2.39611 300.3 20.2039 337.8 48.9039C375.3 77.6039 412.7 112.204 450.2 126.604C487.7 140.904 525.3 134.904 562.8 116.404C600.3 97.9039 637.7 66.9039 675.2 69.9039C712.7 72.9039 750.3 109.904 787.8 127.404C825.3 144.904 862.7 142.904 881.3 141.904L900 140.904V291.904H881.3C862.7 291.904 825.3 291.904 787.8 291.904C750.3 291.904 712.7 291.904 675.2 291.904C637.7 291.904 600.3 291.904 562.8 291.904C525.3 291.904 487.7 291.904 450.2 291.904C412.7 291.904 375.3 291.904 337.8 291.904C300.3 291.904 262.7 291.904 225.2 291.904C187.7 291.904 150.3 291.904 112.8 291.904C75.3 291.904 37.7 291.904 18.8 291.904H0V53.9039Z" fill="#C8DEFE"/>
</svg>
