<svg width="200" height="198" viewBox="0 0 200 198" fill="none" xmlns="http://www.w3.org/2000/svg">
<rect width="5.40541" height="5.40541" rx="1.34409" fill="#F3F3F3"/>
<rect x="21.6219" width="5.40541" height="5.40541" rx="1.34409" fill="#F3F3F3"/>
<rect x="43.243" width="5.40541" height="5.40541" rx="1.34409" fill="#F3F3F3"/>
<rect x="64.8653" width="5.40541" height="5.40541" rx="1.34409" fill="#F3F3F3"/>
<rect x="86.4864" width="5.40541" height="5.40541" rx="1.34409" fill="#F3F3F3"/>
<rect x="108.108" width="5.40541" height="5.40541" rx="1.34409" fill="#F3F3F3"/>
<rect x="129.73" width="5.40541" height="5.40541" rx="1.34409" fill="#F3F3F3"/>
<rect x="151.351" width="5.40541" height="5.40541" rx="1.34409" fill="#F3F3F3"/>
<rect x="172.974" width="5.40541" height="5.40541" rx="1.34409" fill="#F3F3F3"/>
<rect x="194.595" width="5.40541" height="5.40541" rx="1.34409" fill="#F3F3F3"/>
<rect y="21.6211" width="5.40541" height="5.40541" rx="1.34409" fill="#F3F3F3"/>
<rect x="21.6219" y="21.6211" width="5.40541" height="5.40541" rx="1.34409" fill="#F3F3F3"/>
<rect x="43.243" y="21.6211" width="5.40541" height="5.40541" rx="1.34409" fill="#F3F3F3"/>
<rect x="64.8652" y="21.6211" width="5.40541" height="5.40541" rx="1.34409" fill="#F3F3F3"/>
<rect x="86.4863" y="21.6211" width="5.40541" height="5.40541" rx="1.34409" fill="#F3F3F3"/>
<rect x="108.108" y="21.6211" width="5.40541" height="5.40541" rx="1.34409" fill="#F3F3F3"/>
<rect x="129.73" y="21.6211" width="5.40541" height="5.40541" rx="1.34409" fill="#F3F3F3"/>
<rect x="151.351" y="21.6211" width="5.40541" height="5.40541" rx="1.34409" fill="#F3F3F3"/>
<rect x="172.974" y="21.6211" width="5.40541" height="5.40541" rx="1.34409" fill="#F3F3F3"/>
<rect x="194.595" y="21.6211" width="5.40541" height="5.40541" rx="1.34409" fill="#F3F3F3"/>
<rect y="43.2432" width="5.40541" height="5.40541" rx="1.34409" fill="#F3F3F3"/>
<rect x="21.6219" y="43.2432" width="5.40541" height="5.40541" rx="1.34409" fill="#F3F3F3"/>
<rect x="43.243" y="43.2432" width="5.40541" height="5.40541" rx="1.34409" fill="#F3F3F3"/>
<rect x="64.8653" y="43.2432" width="5.40541" height="5.40541" rx="1.34409" fill="#F3F3F3"/>
<rect x="86.4864" y="43.2432" width="5.40541" height="5.40541" rx="1.34409" fill="#F3F3F3"/>
<rect x="108.108" y="43.2432" width="5.40541" height="5.40541" rx="1.34409" fill="#F3F3F3"/>
<rect x="129.73" y="43.2432" width="5.40541" height="5.40541" rx="1.34409" fill="#F3F3F3"/>
<rect x="151.351" y="43.2432" width="5.40541" height="5.40541" rx="1.34409" fill="#F3F3F3"/>
<rect x="172.974" y="43.2432" width="5.40541" height="5.40541" rx="1.34409" fill="#F3F3F3"/>
<rect x="194.595" y="43.2432" width="5.40541" height="5.40541" rx="1.34409" fill="#F3F3F3"/>
<rect y="64.8643" width="5.40541" height="5.40541" rx="1.34409" fill="#F3F3F3"/>
<rect x="21.6219" y="64.8643" width="5.40541" height="5.40541" rx="1.34409" fill="#F3F3F3"/>
<rect x="43.243" y="64.8643" width="5.40541" height="5.40541" rx="1.34409" fill="#F3F3F3"/>
<rect x="64.8652" y="64.8643" width="5.40541" height="5.40541" rx="1.34409" fill="#F3F3F3"/>
<rect x="86.4863" y="64.8643" width="5.40541" height="5.40541" rx="1.34409" fill="#F3F3F3"/>
<rect x="108.108" y="64.8643" width="5.40541" height="5.40541" rx="1.34409" fill="#F3F3F3"/>
<rect x="129.73" y="64.8643" width="5.40541" height="5.40541" rx="1.34409" fill="#F3F3F3"/>
<rect x="151.351" y="64.8643" width="5.40541" height="5.40541" rx="1.34409" fill="#F3F3F3"/>
<rect x="172.974" y="64.8643" width="5.40541" height="5.40541" rx="1.34409" fill="#F3F3F3"/>
<rect x="194.595" y="64.8643" width="5.40541" height="5.40541" rx="1.34409" fill="#F3F3F3"/>
<rect y="86.4863" width="5.40541" height="5.40541" rx="1.34409" fill="#F3F3F3"/>
<rect x="21.6219" y="86.4863" width="5.40541" height="5.40541" rx="1.34409" fill="#F3F3F3"/>
<rect x="43.243" y="86.4863" width="5.40541" height="5.40541" rx="1.34409" fill="#F3F3F3"/>
<rect x="64.8652" y="86.4863" width="5.40541" height="5.40541" rx="1.34409" fill="#F3F3F3"/>
<rect x="86.4863" y="86.4863" width="5.40541" height="5.40541" rx="1.34409" fill="#F3F3F3"/>
<rect x="108.108" y="86.4863" width="5.40541" height="5.40541" rx="1.34409" fill="#F3F3F3"/>
<rect x="129.73" y="86.4863" width="5.40541" height="5.40541" rx="1.34409" fill="#F3F3F3"/>
<rect x="151.351" y="86.4863" width="5.40541" height="5.40541" rx="1.34409" fill="#F3F3F3"/>
<rect x="172.974" y="86.4863" width="5.40541" height="5.40541" rx="1.34409" fill="#F3F3F3"/>
<rect x="194.595" y="86.4863" width="5.40541" height="5.40541" rx="1.34409" fill="#F3F3F3"/>
<rect y="108.108" width="5.40541" height="5.40541" rx="1.34409" fill="#F3F3F3"/>
<rect x="21.6219" y="108.108" width="5.40541" height="5.40541" rx="1.34409" fill="#F3F3F3"/>
<rect x="43.243" y="108.108" width="5.40541" height="5.40541" rx="1.34409" fill="#F3F3F3"/>
<rect x="64.8653" y="108.108" width="5.40541" height="5.40541" rx="1.34409" fill="#F3F3F3"/>
<rect x="86.4864" y="108.108" width="5.40541" height="5.40541" rx="1.34409" fill="#F3F3F3"/>
<rect x="108.108" y="108.108" width="5.40541" height="5.40541" rx="1.34409" fill="#F3F3F3"/>
<rect x="129.73" y="108.108" width="5.40541" height="5.40541" rx="1.34409" fill="#F3F3F3"/>
<rect x="151.351" y="108.108" width="5.40541" height="5.40541" rx="1.34409" fill="#F3F3F3"/>
<rect x="172.974" y="108.108" width="5.40541" height="5.40541" rx="1.34409" fill="#F3F3F3"/>
<rect x="194.595" y="108.108" width="5.40541" height="5.40541" rx="1.34409" fill="#F3F3F3"/>
<rect y="129.729" width="5.40541" height="5.40541" rx="1.34409" fill="#F3F3F3"/>
<rect y="150.583" width="5.40541" height="5.40541" rx="1.34409" fill="#F3F3F3"/>
<rect y="171.437" width="5.40541" height="5.40541" rx="1.34409" fill="#F3F3F3"/>
<rect y="192.289" width="5.40541" height="5.40541" rx="1.34409" fill="#F3F3F3"/>
<rect x="21.6219" y="129.729" width="5.40541" height="5.40541" rx="1.34409" fill="#F3F3F3"/>
<rect x="21.6219" y="150.583" width="5.40541" height="5.40541" rx="1.34409" fill="#F3F3F3"/>
<rect x="21.6219" y="171.437" width="5.40541" height="5.40541" rx="1.34409" fill="#F3F3F3"/>
<rect x="21.6219" y="192.289" width="5.40541" height="5.40541" rx="1.34409" fill="#F3F3F3"/>
<rect x="43.243" y="129.729" width="5.40541" height="5.40541" rx="1.34409" fill="#F3F3F3"/>
<rect x="43.243" y="150.583" width="5.40541" height="5.40541" rx="1.34409" fill="#F3F3F3"/>
<rect x="43.243" y="171.437" width="5.40541" height="5.40541" rx="1.34409" fill="#F3F3F3"/>
<rect x="43.243" y="192.289" width="5.40541" height="5.40541" rx="1.34409" fill="#F3F3F3"/>
<rect x="64.8652" y="129.729" width="5.40541" height="5.40541" rx="1.34409" fill="#F3F3F3"/>
<rect x="64.8653" y="150.583" width="5.40541" height="5.40541" rx="1.34409" fill="#F3F3F3"/>
<rect x="64.8653" y="171.437" width="5.40541" height="5.40541" rx="1.34409" fill="#F3F3F3"/>
<rect x="64.8652" y="192.289" width="5.40541" height="5.40541" rx="1.34409" fill="#F3F3F3"/>
<rect x="86.4863" y="129.729" width="5.40541" height="5.40541" rx="1.34409" fill="#F3F3F3"/>
<rect x="86.4864" y="150.583" width="5.40541" height="5.40541" rx="1.34409" fill="#F3F3F3"/>
<rect x="86.4864" y="171.437" width="5.40541" height="5.40541" rx="1.34409" fill="#F3F3F3"/>
<rect x="86.4863" y="192.289" width="5.40541" height="5.40541" rx="1.34409" fill="#F3F3F3"/>
<rect x="108.108" y="129.729" width="5.40541" height="5.40541" rx="1.34409" fill="#F3F3F3"/>
<rect x="108.108" y="150.583" width="5.40541" height="5.40541" rx="1.34409" fill="#F3F3F3"/>
<rect x="108.108" y="171.437" width="5.40541" height="5.40541" rx="1.34409" fill="#F3F3F3"/>
<rect x="108.108" y="192.289" width="5.40541" height="5.40541" rx="1.34409" fill="#F3F3F3"/>
<rect x="129.73" y="129.729" width="5.40541" height="5.40541" rx="1.34409" fill="#F3F3F3"/>
<rect x="129.73" y="150.583" width="5.40541" height="5.40541" rx="1.34409" fill="#F3F3F3"/>
<rect x="129.73" y="171.437" width="5.40541" height="5.40541" rx="1.34409" fill="#F3F3F3"/>
<rect x="129.73" y="192.289" width="5.40541" height="5.40541" rx="1.34409" fill="#F3F3F3"/>
<rect x="151.351" y="129.729" width="5.40541" height="5.40541" rx="1.34409" fill="#F3F3F3"/>
<rect x="151.351" y="150.583" width="5.40541" height="5.40541" rx="1.34409" fill="#F3F3F3"/>
<rect x="151.351" y="171.437" width="5.40541" height="5.40541" rx="1.34409" fill="#F3F3F3"/>
<rect x="151.351" y="192.289" width="5.40541" height="5.40541" rx="1.34409" fill="#F3F3F3"/>
<rect x="172.974" y="129.729" width="5.40541" height="5.40541" rx="1.34409" fill="#F3F3F3"/>
<rect x="172.974" y="150.583" width="5.40541" height="5.40541" rx="1.34409" fill="#F3F3F3"/>
<rect x="172.974" y="171.437" width="5.40541" height="5.40541" rx="1.34409" fill="#F3F3F3"/>
<rect x="172.974" y="192.289" width="5.40541" height="5.40541" rx="1.34409" fill="#F3F3F3"/>
<rect x="194.595" y="129.729" width="5.40541" height="5.40541" rx="1.34409" fill="#F3F3F3"/>
<rect x="194.595" y="150.583" width="5.40541" height="5.40541" rx="1.34409" fill="#F3F3F3"/>
<rect x="194.595" y="171.437" width="5.40541" height="5.40541" rx="1.34409" fill="#F3F3F3"/>
<rect x="194.595" y="192.289" width="5.40541" height="5.40541" rx="1.34409" fill="#F3F3F3"/>
</svg>
