<svg width="1577" height="947" viewBox="0 0 1577 947" fill="none" xmlns="http://www.w3.org/2000/svg">
<path d="M1 429.469L323.847 220.575C366.994 192.658 422.506 192.658 465.653 220.575L788.5 429.469L1111.35 638.363C1154.49 666.28 1210.01 666.28 1253.15 638.363L1576 429.469" stroke="#0B0B0B" stroke-opacity="0.04" stroke-width="2" stroke-linecap="round" stroke-linejoin="round"/>
<path d="M1 342.12L323.847 133.226C366.994 105.309 422.506 105.309 465.653 133.226L788.5 342.12L1111.35 551.014C1154.49 578.931 1210.01 578.931 1253.15 551.014L1576 342.12" stroke="#0B0B0B" stroke-opacity="0.04" stroke-width="2" stroke-linecap="round" stroke-linejoin="round"/>
<path d="M1 254.77L323.847 45.8766C366.994 17.9593 422.506 17.9593 465.653 45.8766L788.5 254.77L1111.35 463.664C1154.49 491.582 1210.01 491.582 1253.15 463.664L1576 254.77" stroke="#0B0B0B" stroke-opacity="0.04" stroke-width="2" stroke-linecap="round" stroke-linejoin="round"/>
<path d="M1 516.817L323.847 307.923C366.994 280.006 422.506 280.006 465.653 307.923L788.5 516.817L1111.35 725.711C1154.49 753.628 1210.01 753.628 1253.15 725.711L1576 516.817" stroke="#0B0B0B" stroke-opacity="0.04" stroke-width="2" stroke-linecap="round" stroke-linejoin="round"/>
<path d="M1 604.169L323.847 395.275C366.994 367.358 422.506 367.358 465.653 395.275L788.5 604.169L1111.35 813.063C1154.49 840.98 1210.01 840.98 1253.15 813.063L1576 604.169" stroke="#0B0B0B" stroke-opacity="0.04" stroke-width="2" stroke-linecap="round" stroke-linejoin="round"/>
<path d="M1 691.516L323.847 482.622C366.994 454.704 422.506 454.704 465.653 482.622L788.5 691.516L1111.35 900.409C1154.49 928.327 1210.01 928.327 1253.15 900.409L1576 691.516" stroke="#0B0B0B" stroke-opacity="0.04" stroke-width="2" stroke-linecap="round" stroke-linejoin="round"/>
</svg>
