<svg width="32" height="32" viewBox="0 0 32 32" fill="none" xmlns="http://www.w3.org/2000/svg">
<g id="solar:layers-bold-duotone">
<g id="Group">
<path id="Vector" opacity="0.32" d="M6.6385 12.913C3.9905 11.8543 2.6665 11.325 2.6665 10.6663C2.6665 10.0077 3.9905 9.47967 6.6385 8.41967L10.3825 6.92234C13.0305 5.86234 14.3558 5.33301 15.9998 5.33301C17.6452 5.33301 18.9692 5.86234 21.6172 6.92234L25.3612 8.41967C28.0092 9.47834 29.3332 10.0077 29.3332 10.6663C29.3332 11.325 28.0092 11.853 25.3612 12.913L21.6172 14.4103C18.9692 15.4717 17.6438 15.9997 15.9998 15.9997C14.3545 15.9997 13.0305 15.4703 10.3825 14.4117L6.63984 12.9117L6.6385 12.913Z" fill="black"/>
<path id="Vector_2" opacity="0.64" d="M7.68784 13.333L6.6385 13.753C3.9905 14.8117 2.6665 15.3423 2.6665 15.9997C2.6665 16.657 3.9905 17.1863 6.6385 18.2463L10.3825 19.7437C13.0305 20.805 14.3558 21.333 15.9998 21.333C17.6452 21.333 18.9692 20.8037 21.6172 19.745L25.3612 18.2463C28.0092 17.1877 29.3332 16.657 29.3332 15.9997C29.3332 15.3423 28.0092 14.813 25.3612 13.753L24.3118 13.333L21.6172 14.4117C18.9692 15.4703 17.6438 15.9997 15.9998 15.9997C14.3545 15.9997 13.0305 15.4703 10.3825 14.4117L7.68917 13.333H7.68784Z" fill="black"/>
<path id="Vector_3" d="M7.68784 18.666L6.6385 19.086C3.9905 20.1447 2.6665 20.6753 2.6665 21.3327C2.6665 21.9913 3.9905 22.5193 6.6385 23.5793L10.3825 25.0767C13.0305 26.138 14.3558 26.666 15.9998 26.666C17.6452 26.666 18.9692 26.1367 21.6172 25.0767L25.3612 23.5793C28.0092 22.5207 29.3332 21.9913 29.3332 21.3327C29.3332 20.6753 28.0092 20.146 25.3612 19.086L24.3118 18.666L21.6172 19.7447C18.9692 20.8033 17.6438 21.3327 15.9998 21.3327C14.3545 21.3327 13.0305 20.8033 10.3825 19.7447L7.68917 18.666H7.68784Z" fill="black"/>
</g>
</g>
</svg>
