<svg width="32" height="32" viewBox="0 0 32 32" fill="none" xmlns="http://www.w3.org/2000/svg">
<g id="solar:layers-bold-duotone">
<g id="Group">
<path id="Vector" d="M6.6385 18.58C3.9905 17.5213 2.6665 16.992 2.6665 16.3333C2.6665 15.6747 3.9905 15.1467 6.6385 14.0867L10.3825 12.5893C13.0305 11.5293 14.3558 11 15.9998 11C17.6452 11 18.9692 11.5293 21.6172 12.5893L25.3612 14.0867C28.0092 15.1453 29.3332 15.6747 29.3332 16.3333C29.3332 16.992 28.0092 17.52 25.3612 18.58L21.6172 20.0773C18.9692 21.1387 17.6438 21.6667 15.9998 21.6667C14.3545 21.6667 13.0305 21.1373 10.3825 20.0787L6.63984 18.5787L6.6385 18.58Z" fill="black"/>
</g>
</g>
</svg>
