<svg width="32" height="32" viewBox="0 0 32 32" fill="none" xmlns="http://www.w3.org/2000/svg">
<g id="solar:layers-bold-duotone">
<g id="Group">
<path id="Vector" opacity="0.64" d="M6.3055 15.58C3.6575 14.5213 2.3335 13.992 2.3335 13.3333C2.3335 12.6747 3.6575 12.1467 6.3055 11.0867L10.0495 9.58933C12.6975 8.52933 14.0228 8 15.6668 8C17.3122 8 18.6362 8.52933 21.2842 9.58933L25.0282 11.0867C27.6762 12.1453 29.0002 12.6747 29.0002 13.3333C29.0002 13.992 27.6762 14.52 25.0282 15.58L21.2842 17.0773C18.6362 18.1387 17.3108 18.6667 15.6668 18.6667C14.0215 18.6667 12.6975 18.1373 10.0495 17.0787L6.30683 15.5787L6.3055 15.58Z" fill="black"/>
<path id="Vector_2" d="M7.35483 16L6.3055 16.42C3.6575 17.4787 2.3335 18.0093 2.3335 18.6667C2.3335 19.324 3.6575 19.8533 6.3055 20.9133L10.0495 22.4107C12.6975 23.472 14.0228 24 15.6668 24C17.3122 24 18.6362 23.4707 21.2842 22.412L25.0282 20.9133C27.6762 19.8547 29.0002 19.324 29.0002 18.6667C29.0002 18.0093 27.6762 17.48 25.0282 16.42L23.9788 16L21.2842 17.0787C18.6362 18.1373 17.3108 18.6667 15.6668 18.6667C14.0215 18.6667 12.6975 18.1373 10.0495 17.0787L7.35616 16H7.35483Z" fill="black"/>
</g>
</g>
</svg>
